<svg xmlns="http://www.w3.org/2000/svg" width="504.808" height="592.029" viewBox="0 0 504.808 592.029">
  <g id="Grupo_239" data-name="Grupo 239" transform="translate(-206.596 -646.375)">
    <g id="Grupo_238" data-name="Grupo 238" transform="translate(206.596 733.596)">
      <path id="Caminho_111" data-name="Caminho 111" d="M678.708,546.289a227.46,227.46,0,0,0,0-66.142l-50.98-8.012a203.3,203.3,0,0,0-6.224-22.809l40.42-32.608a251.465,251.465,0,0,0-33.269-57.138L580.29,378.252a207.236,207.236,0,0,0-16.618-16.62l18.671-48.364A251.356,251.356,0,0,0,525.2,280L492.6,320.452a196.509,196.509,0,0,0-22.809-6.258l-7.978-50.98a227.508,227.508,0,0,0-66.143,0l-8.011,50.98a194.17,194.17,0,0,0-22.776,6.258L332.238,280A251.379,251.379,0,0,0,275.1,313.268l18.671,48.364a207.072,207.072,0,0,0-16.618,16.62L228.787,359.58a251.459,251.459,0,0,0-33.27,57.138l40.454,32.608a203.425,203.425,0,0,0-6.258,22.809l-50.98,8.012a227.482,227.482,0,0,0,0,66.142l50.98,7.978a203.376,203.376,0,0,0,6.258,22.809l-40.454,32.608a251.43,251.43,0,0,0,33.27,57.139l48.366-18.671a207.128,207.128,0,0,0,16.618,16.618L275.1,713.135a251.489,251.489,0,0,0,57.138,33.27l32.641-40.421a200.649,200.649,0,0,0,22.776,6.224l8.011,50.981a227.554,227.554,0,0,0,66.143,0l7.978-50.981a203.122,203.122,0,0,0,22.809-6.224L525.2,746.4a251.466,251.466,0,0,0,57.138-33.27l-18.671-48.366a207.292,207.292,0,0,0,16.618-16.618l48.366,18.671a251.437,251.437,0,0,0,33.269-57.139L621.5,577.076a203.251,203.251,0,0,0,6.224-22.809Zm-249.97,99.048A132.119,132.119,0,1,1,560.857,513.218,132.105,132.105,0,0,1,428.738,645.337Z" transform="translate(-176.317 -260.797)"/>
      <g id="Grupo_47" data-name="Grupo 47" transform="translate(103.848 103.848)">
        <path id="Caminho_112" data-name="Caminho 112" d="M328.027,263.935A148.555,148.555,0,1,0,476.6,412.507,148.558,148.558,0,0,0,328.027,263.935Zm0,240.934a92.378,92.378,0,1,1,92.361-92.361A92.383,92.383,0,0,1,328.027,504.868Z" transform="translate(-179.454 -263.935)" fill="#474648"/>
      </g>
    </g>
    <g id="Grupo_110" data-name="Grupo 110" transform="translate(423.748 646.375)">
      <path id="Caminho_224" data-name="Caminho 224" d="M321.3,140.412h-7.843s-1.128,10.683-3.174,11.955c0,0-2.524,12.619,7.1,12.619,11.638,0,7.094-12.619,7.094-12.619C322.429,151.1,321.3,140.412,321.3,140.412Z" transform="translate(-282.111 -127.458)" fill="#f88667"/>
      <path id="Caminho_225" data-name="Caminho 225" d="M321.3,140.412h-7.843s-1.128,10.683-3.174,11.955c0,0-2.524,12.619,7.1,12.619,11.638,0,7.094-12.619,7.094-12.619C322.429,151.1,321.3,140.412,321.3,140.412Z" transform="translate(-282.111 -127.458)" fill="#e45940"/>
      <g id="Grupo_108" data-name="Grupo 108" transform="translate(25.199)">
        <path id="Caminho_226" data-name="Caminho 226" d="M329.284,148.52c-1.085-1.249-2.391.653-2.391.653s1.795-7.066,0-10.16-7.605-1.467-7.605-1.467-5.817-1.631-7.608,1.467,0,10.16,0,10.16-1.3-1.9-2.391-.653,1.792,4.4,2.445,4.782c0,0,4.186,7.826,7.555,7.826s7.552-7.826,7.552-7.826C327.492,152.921,330.372,149.77,329.284,148.52Z" transform="translate(-309.021 -133.475)" fill="#f88667"/>
        <path id="Caminho_227" data-name="Caminho 227" d="M317.84,140.6s-4.4.774-4.889,3.137a9.335,9.335,0,0,0,.235,3.524,22.98,22.98,0,0,1,.376,3.895.678.678,0,0,1-.571-.1,8.05,8.05,0,0,1-1.487-1.8c-.837-1.224-2.038-1.02-2.385-.246,0,0-.978-11.593,3.872-12S317.84,140.6,317.84,140.6Z" transform="translate(-309.038 -133.726)" fill="#110239"/>
        <path id="Caminho_228" data-name="Caminho 228" d="M313.166,140.6s4.4.774,4.889,3.137a9.331,9.331,0,0,1-.235,3.524,22.989,22.989,0,0,0-.376,3.895.678.678,0,0,0,.571-.1,8.05,8.05,0,0,0,1.487-1.8c.837-1.224,2.038-1.02,2.385-.246,0,0,.978-11.593-3.872-12S313.166,140.6,313.166,140.6Z" transform="translate(-301.498 -133.726)" fill="#110239"/>
        <path id="Caminho_229" data-name="Caminho 229" d="M327.263,140.745a5.406,5.406,0,0,0-3.174-3.855,14.607,14.607,0,0,0-9.344-.56c-6.153,1.56-6.246,7.933-3.917,9.852a7.552,7.552,0,0,0,5.669,2.165C325.031,148.347,328.583,143.334,327.263,140.745Z" transform="translate(-308.334 -135.828)" fill="#110239"/>
      </g>
      <path id="Caminho_230" data-name="Caminho 230" d="M334.541,144.642c-.41,10.728-7.1,9.621-7.1,9.621s-6.681,1.108-7.094-9.621c0,0-10.675,2.951-15.881,6.438a103.046,103.046,0,0,1,2.357,19.772l6.1,23.636,14.516.718,14.516-.718,6.1-23.636a103.055,103.055,0,0,1,2.357-19.772C345.213,147.593,334.541,144.642,334.541,144.642Z" transform="translate(-292.18 -119.733)" fill="#00bad1"/>
      <path id="Caminho_231" data-name="Caminho 231" d="M346.406,150.005c-6.636,3.536-9.861,11.67-16.3,15.657-6.667,4.123-11.384-4.208-14.629-8.541a25.19,25.19,0,0,0-10.672-8.5,100.909,100.909,0,0,1,1.422,14.951l6.1,23.636,14.516.718,14.516-.718,6.1-23.636a100.243,100.243,0,0,1,1.385-14.722C348,149.22,347.175,149.593,346.406,150.005Z" transform="translate(-291.575 -112.457)" fill="#00547a" opacity="0.32" style="mix-blend-mode: multiply;isolation: isolate"/>
      <path id="Caminho_232" data-name="Caminho 232" d="M357.754,174.551c0-8.3-10.288-13.75-10.288-13.75H312.9s-10.288,5.455-10.288,13.75a41.482,41.482,0,0,0,.831,6.4h11.483c-.466.842-.89,1.628-1.227,2.292-.1.2-.215.379-.322.571h8.352c.63,0,.427.263.251-.664-.254-1.32-1.071-2.069-.268-3.454.63-1.085,3.714-1.976,4.957-2,.271-.006.543-.006.805,0q2.709.064,5.418,0a9.652,9.652,0,0,1,2.015.334c.585.1,2.32-.054,3.069.93a3.99,3.99,0,0,1,.588,2,18.983,18.983,0,0,1-.317,2.852h10.466a30.736,30.736,0,0,1-2.007-2.863h10.217A41.485,41.485,0,0,0,357.754,174.551Z" transform="translate(-295.575 -90.222)" fill="#fd425f"/>
      <path id="Caminho_233" data-name="Caminho 233" d="M357.754,174.551c0-8.3-10.288-13.75-10.288-13.75H312.9s-10.288,5.455-10.288,13.75a41.482,41.482,0,0,0,.831,6.4h11.483c-.466.842-.89,1.628-1.227,2.292-.1.2-.215.379-.322.571h8.352c.63,0,.427.263.251-.664-.254-1.32-1.071-2.069-.268-3.454.63-1.085,3.714-1.976,4.957-2,.271-.006.543-.006.805,0q2.709.064,5.418,0a9.652,9.652,0,0,1,2.015.334c.585.1,2.32-.054,3.069.93a3.99,3.99,0,0,1,.588,2,18.983,18.983,0,0,1-.317,2.852h10.466a30.736,30.736,0,0,1-2.007-2.863h10.217A41.485,41.485,0,0,0,357.754,174.551Z" transform="translate(-295.575 -90.222)" fill="#604012"/>
      <path id="Caminho_234" data-name="Caminho 234" d="M312.412,146.92s-13.2,28.528-12.241,32.324c.24.95,16.3,10.646,23.856,9.256l3.075-.568S315.882,146.717,312.412,146.92Z" transform="translate(-300.121 -115.573)" fill="#00bad1"/>
      <path id="Caminho_235" data-name="Caminho 235" d="M330.212,146.92s13.2,28.528,12.24,32.324c-.24.95-16.3,10.646-23.856,9.256l-3.075-.568S326.741,146.717,330.212,146.92Z" transform="translate(-271.998 -115.573)" fill="#00bad1"/>
      <path id="Caminho_236" data-name="Caminho 236" d="M307.857,150.451a19.916,19.916,0,0,1-.506,4.166c-1.167,5.155-3.007,10.536-1.077,15.77a84.292,84.292,0,0,0,5.958,11.785,9.61,9.61,0,0,0,2.094-.121l3.075-.568S312.257,162.59,307.857,150.451Z" transform="translate(-290.42 -109.124)" fill="#00547a" opacity="0.32" style="mix-blend-mode: multiply;isolation: isolate"/>
      <path id="Caminho_237" data-name="Caminho 237" d="M322.994,181a18.529,18.529,0,0,0,1.461-7.6c-.175-5.268-.206-10.536-.122-15.807.037-2.275.1-4.482.229-6.642-4.279,12.136-9.041,29.627-9.041,29.627l3.075.568A12.61,12.61,0,0,0,322.994,181Z" transform="translate(-271.998 -108.216)" fill="#00547a" opacity="0.32" style="mix-blend-mode: multiply;isolation: isolate"/>
      <path id="Caminho_238" data-name="Caminho 238" d="M314.126,183.456s-8.374,9.965-9.355,12.085,1.416,4.785,4.677,3.7,5.166-3.315,5.22-4.731,1.795-2.168,2.555-2.281,5.113-5.059,4.678-6.418-2.62-2.849-2.62-2.849Z" transform="translate(-292.034 -49.757)" fill="#fff"/>
      <path id="Caminho_239" data-name="Caminho 239" d="M321.842,183.456s8.371,9.965,9.352,12.085-1.413,4.785-4.677,3.7-5.166-3.315-5.22-4.731-1.795-2.168-2.555-2.281-5.113-5.059-4.677-6.418,2.62-2.849,2.62-2.849Z" transform="translate(-274.715 -49.757)" fill="#fff"/>
      <path id="Caminho_240" data-name="Caminho 240" d="M320.65,170.287c-1-2.371-1.2-7.391-7.916-7.391-12.936,0-9.9,10.367-9.705,11.915,1.956,15.434,11.342,46.226,11.342,46.226h12.956s-4.711-37.73-5.441-43.547C321.786,176.691,321.334,171.917,320.65,170.287Z" transform="translate(-295.627 -86.397)" fill="#fdb242"/>
      <path id="Caminho_241" data-name="Caminho 241" d="M320.082,170.287c1-2.371,1.2-7.391,7.916-7.391,12.944,0,9.9,10.367,9.705,11.915-1.956,15.434-11.342,46.226-11.342,46.226H313.406s4.711-37.73,5.44-43.547C318.946,176.691,319.4,171.917,320.082,170.287Z" transform="translate(-275.86 -86.397)" fill="#fdb242"/>
      <g id="Grupo_109" data-name="Grupo 109" transform="translate(8.397 46.312)">
        <rect id="Retângulo_85" data-name="Retângulo 85" width="38.042" height="2.255" transform="translate(7.849 26.375)" fill="#110239"/>
        <path id="Caminho_242" data-name="Caminho 242" d="M354.577,152.215h-49.23s-2.657,0-2.2,2.965,6.661,23.7,7.914,23.7h37.81c1.1,0,7.456-20.736,7.911-23.7S354.577,152.215,354.577,152.215Z" transform="translate(-303.092 -152.215)" fill="#110239"/>
        <path id="Caminho_243" data-name="Caminho 243" d="M315.954,158.609a2.038,2.038,0,1,1-2.038-2.035A2.037,2.037,0,0,1,315.954,158.609Z" transform="translate(-287.046 -144.254)" fill="#d0d1de"/>
      </g>
    </g>
    <g id="Grupo_111" data-name="Grupo 111" transform="translate(349.906 1141)">
      <path id="Caminho_244" data-name="Caminho 244" d="M344.5,206.824l4.1,12.611h13.26l-10.726,7.793,4.1,12.61L344.5,232.045l-10.727,7.794,4.1-12.61-10.727-7.793H340.4Z" transform="translate(-327.139 -226.824)" fill="#fdb242"/>
      <path id="Caminho_245" data-name="Caminho 245" d="M353.839,206.824l4.1,12.611h13.259l-10.727,7.793,4.1,12.61-10.726-7.794-10.727,7.794,4.1-12.61-10.727-7.793h13.259Z" transform="translate(-289.113 -212.824)" fill="#fdb242"/>
      <path id="Caminho_246" data-name="Caminho 246" d="M363.181,206.824l4.1,12.611h13.259l-10.727,7.793,4.1,12.61-10.726-7.794-10.728,7.794,4.1-12.61-10.727-7.793h13.26Z" transform="translate(-251.086 -206.824)" fill="#fdb242"/>
      <path id="Caminho_247" data-name="Caminho 247" d="M372.523,206.824l4.1,12.611h13.259l-10.726,7.793,4.1,12.61-10.726-7.794L361.8,239.839l4.1-12.61-10.728-7.793h13.26Z" transform="translate(-213.06 -212.824)" fill="#fdb242"/>
      <path id="Caminho_248" data-name="Caminho 248" d="M381.865,206.824l4.1,12.611h13.259l-10.727,7.793,4.1,12.61-10.726-7.794-10.727,7.794,4.1-12.61-10.727-7.793h13.259Z" transform="translate(-175.033 -226.824)" fill="#fdb242"/>
    </g>
  </g>
</svg>
